<svg xmlns="http://www.w3.org/2000/svg" viewBox="0 0 550 470"><g fill="#FFF" fill-rule="none" stroke-miterlimit="10" font-family="none" font-weight="none" font-size="none" text-anchor="none" style="mix-blend-mode:normal"><g fill-rule="nonzero"><path d="M109.579 294.428h3.227l-.914-4.303h-7.262l-.86 4.303h3.227v8.82H88.602v-8.82h2.151l9.09-33.026h19.579l9.09 33.026h2.151v8.82H109.58zm-3.765-10.005h4.948l-2.205-10.703h-.538z"/><path d="M132.277 261.402h25.71l6.132 18.45 5.916-18.45h24.796v8.821h-3.227v24.205h3.227v8.82h-21.515v-8.82h3.227v-21.246l-10.703 30.067h-5.81l-12.155-30.175v21.354h3.227v8.82h-18.825v-8.82h3.227v-24.205h-3.227z"/><path d="M235.01 288.242c0 2.905-.404 5.352-1.21 7.342-.807 1.99-1.964 3.613-3.47 4.868-1.506 1.255-3.326 2.16-5.46 2.716-2.133.556-4.508.834-7.126.834-2.69 0-5.119-.278-7.288-.834-2.17-.556-4.016-1.461-5.54-2.716-1.524-1.255-2.707-2.878-3.55-4.868-.843-1.99-1.264-4.437-1.264-7.342v-18.019h-3.227v-8.82h20.439v8.82h-2.152v20.762c0 1.22.26 2.098.78 2.636.52.538 1.3.807 2.34.807 1.04 0 1.82-.27 2.34-.807.52-.538.78-1.417.78-2.636v-20.762h-2.152v-8.82h18.987v8.82h-3.227z" /><path d="M270.509 261.402h18.825v8.821h-3.227v33.026h-15.114l-15.76-24.258v15.437h3.228v8.82h-18.826v-8.82h3.227v-24.205h-3.227v-8.82h19.955l14.146 21.622v-12.802h-3.227z"/><path d="M291.163 261.402h22.375c2.761 0 5.334.35 7.719 1.05 2.384.698 4.455 1.873 6.212 3.522 1.757 1.65 3.138 3.81 4.142 6.482 1.004 2.671 1.506 5.961 1.506 9.87 0 3.944-.502 7.243-1.506 9.896-1.004 2.654-2.385 4.805-4.142 6.455-1.757 1.65-3.828 2.823-6.212 3.523-2.385.699-4.958 1.049-7.719 1.049h-22.375v-8.821h3.227v-24.15h-3.227zm21.407 33.026c1.22 0 2.134-.314 2.743-.942.61-.627.915-1.64.915-3.039v-16.243c0-1.399-.323-2.412-.969-3.04-.645-.627-1.541-.94-2.689-.94h-3.12v24.204z"/><path d="M350.92 293.62c1.183 0 2.026-.179 2.528-.537.502-.359.753-.897.753-1.614 0-.502-.206-.941-.618-1.318-.413-.376-1.247-.815-2.502-1.317-2.653-1.004-4.975-1.964-6.965-2.878-1.99-.914-3.64-1.927-4.948-3.039-1.31-1.111-2.286-2.411-2.932-3.9-.645-1.487-.968-3.29-.968-5.405 0-2.008.314-3.81.941-5.406.628-1.595 1.65-2.958 3.066-4.087 1.417-1.13 3.3-1.99 5.648-2.582 2.349-.592 5.244-.888 8.686-.888 3.12 0 6.06.314 8.821.942 2.761.627 5.056 1.46 6.885 2.5v9.629H358.02c0-1.04-.287-1.748-.86-2.125-.574-.376-1.274-.565-2.098-.565-1.184 0-2.035.153-2.555.457-.52.305-.78.834-.78 1.587 0 .61.278 1.058.834 1.345.555.287 1.389.61 2.5.968a88.933 88.933 0 0 1 5.89 2.151c1.847.753 3.47 1.686 4.868 2.797a12.187 12.187 0 0 1 3.308 4.034c.807 1.578 1.21 3.514 1.21 5.81 0 4.66-1.506 8.13-4.518 10.407-3.012 2.277-7.423 3.416-13.232 3.416-3.298 0-6.472-.287-9.52-.861-3.048-.574-5.486-1.255-7.315-2.044v-10.65h11.833c0 1.076.215 1.874.646 2.394.43.52 1.326.78 2.69.78z"/><path d="M397.177 270.223h-6.509v8.499h4.734v6.131h-4.733v9.575h6.508v-8.499h12.048v17.32H372.38v-8.821h3.227v-24.205h-3.227v-8.82h36.844v16.243h-12.048z"/><path d="M442.573 261.402h18.825v8.821h-3.227v33.026h-15.114l-15.76-24.258v15.437h3.228v8.82h-18.826v-8.82h3.227v-24.205H411.7v-8.82h19.955l14.146 21.622v-12.802h-3.227z"/><path d="M106.62 322.081h-2.36l3.255 18.63h.472l3.254-18.63h-2.358v-7.735h15.659v7.735h-1.887l-7.499 28.96H97.988l-7.5-28.96h-1.886v-7.735h18.017z"/><path d="M147.512 322.081h-5.707v7.453h4.15v5.377h-4.15v8.395h5.707v-7.452h10.565v15.187h-32.309v-7.735h2.83v-21.225h-2.83v-7.735h32.309v14.244h-10.565z"/><path d="M160.53 314.346h19.62c2.421 0 4.677.307 6.768.92s3.907 1.643 5.448 3.09c1.54 1.446 2.751 3.34 3.632 5.683.88 2.342 1.32 5.227 1.32 8.655 0 3.459-.44 6.351-1.32 8.678-.88 2.327-2.091 4.214-3.632 5.66-1.54 1.446-3.357 2.476-5.448 3.09-2.09.613-4.347.92-6.768.92h-19.62v-7.736h2.83v-21.177h-2.83zm18.771 28.96c1.07 0 1.871-.275 2.406-.825.534-.55.801-1.439.801-2.665v-14.244c0-1.227-.283-2.115-.849-2.665-.566-.55-1.352-.826-2.358-.826h-2.735v21.225z"/><path d="m233.872 322.081-7.405 9.528 8.112 11.697h1.887v7.735H222.41l-7.452-12.923v12.923h-16.036v-7.735h2.83v-21.225h-2.83v-7.735h16.036v12.688l8.632-12.688h12.168v7.736z" /><path d="M254.106 343.306c1.069 0 1.87-.275 2.405-.825.535-.55.802-1.439.802-2.665v-14.244c0-1.227-.267-2.115-.802-2.665-.534-.55-1.336-.826-2.405-.826-1.07 0-1.871.276-2.406.826-.534.55-.802 1.438-.802 2.665v14.244c0 1.226.268 2.114.802 2.665.535.55 1.337.825 2.406.825zm18.017-10.612c0 3.459-.425 6.39-1.274 8.796-.849 2.406-2.051 4.363-3.608 5.872-1.556 1.51-3.45 2.61-5.683 3.302-2.233.692-4.717 1.037-7.452 1.037-2.736 0-5.22-.345-7.452-1.037-2.233-.692-4.127-1.792-5.684-3.302-1.556-1.51-2.76-3.466-3.608-5.872-.85-2.405-1.274-5.337-1.274-8.796 0-3.428.425-6.352 1.274-8.773.849-2.421 2.052-4.386 3.608-5.896 1.557-1.509 3.451-2.61 5.684-3.301 2.232-.692 4.716-1.038 7.452-1.038 2.735 0 5.22.346 7.452 1.038 2.232.691 4.127 1.792 5.683 3.301 1.557 1.51 2.76 3.475 3.608 5.896.85 2.421 1.274 5.345 1.274 8.773z" /><path d="M273.444 314.346h22.545l5.377 16.178 5.188-16.178h21.743v7.735h-2.83v21.225h2.83v7.735h-18.866v-7.735h2.83v-18.63l-9.386 26.365h-5.094l-10.66-26.46v18.725h2.83v7.735h-16.507v-7.735h2.83v-21.225h-2.83z"/><path d="M348.012 329.817c.88 0 1.557-.236 2.028-.708.472-.471.708-1.242.708-2.31V325.1c0-1.069-.228-1.84-.684-2.311-.456-.472-1.14-.707-2.052-.707h-1.603v7.735zm2.924 21.224h-20.564v-7.735h2.83v-21.225h-2.83v-7.735h21.178c1.918 0 3.655.197 5.211.59 1.557.393 2.87 1.03 3.939 1.91 1.069.88 1.894 2.028 2.476 3.443.582 1.415.872 3.129.872 5.141 0 2.044-.29 3.766-.872 5.165-.582 1.4-1.407 2.539-2.476 3.42-1.07.88-2.382 1.517-3.939 1.91-1.556.393-3.293.59-5.211.59h-5.141v6.791h4.527z"/><path d="M377.726 343.306h2.83l-.801-3.773h-6.368l-.754 3.773h2.83v7.735h-16.131v-7.735h1.887l7.97-28.96h17.169l7.97 28.96h1.887v7.735h-18.489zm-3.301-8.773h4.34l-1.935-9.386h-.471z"/><path d="M424.609 314.346h16.508v7.735h-2.83v28.96h-13.253l-13.82-21.272v13.537h2.83v7.735h-16.508v-7.735h2.83v-21.225h-2.83v-7.735h17.498l12.405 18.96v-11.225h-2.83z"/><path d="M442.532 314.346h18.866v7.735h-2.83v21.225h2.83v7.735h-18.866v-7.735h2.83v-21.225h-2.83z"/></g><g fill-rule="evenodd"><path d="M328.959 236.427h-73.57c-4.726-.227-8.71-3.339-10.224-7.608h-61.63c-12.61 0-22.866-10.256-22.866-22.867 0-12.61 10.255-22.866 22.866-22.866h60.977v-3.81c0-13.835 6.055-34.3 19.055-34.3v-11.433c0-8.407 6.837-15.244 15.244-15.244s15.244 6.837 15.244 15.244v11.433h22.866c10.715 0 19.977 6.354 24.216 15.49.33.125.646.297.937.516l41.19 30.896a15.221 15.221 0 0 1 6.067 12.127v13.342c0 6.323-5.149 11.472-11.471 11.472h-36.324c-2.548 4.38-7.21 7.385-12.577 7.608zm-42.526-102.884v11.433H271.19v-11.433c0-4.204 3.418-7.622 7.622-7.622s7.622 3.418 7.622 7.622zm-19.055 34.299a3.808 3.808 0 0 1-3.811-3.811v-11.433c-6.155 0-11.433 14.669-11.433 26.677v45.733a3.812 3.812 0 0 0 3.81 3.81H275v-41.92a3.808 3.808 0 0 1 3.811-3.812h15.244v-3.81h-3.81a3.808 3.808 0 0 1-3.812-3.812 3.808 3.808 0 0 1 3.811-3.81h15.244a3.808 3.808 0 0 1 3.811 3.81 3.808 3.808 0 0 1-3.81 3.811h-3.812v3.811h15.244c1.273 0 2.462.637 3.171 1.696l7.622 11.433c.416.625.64 1.365.64 2.115v11.433c0 .408-.068.816-.198 1.205l-5.95 17.85h6.11a7.666 7.666 0 0 0 7.66-7.66v-49.505c0-10.507-8.548-19.055-19.055-19.055H271.19v11.433a3.808 3.808 0 0 1-3.811 3.811zm110.482 53.354h-34.261v-7.622h26.677a3.808 3.808 0 0 0 3.81-3.81v-3.812a3.814 3.814 0 0 0-1.523-3.048l-28.964-21.723v-9.528l35.095 26.32a7.586 7.586 0 0 1 3.015 6.032v13.342a3.853 3.853 0 0 1-3.85 3.85zm-194.325-30.488h60.977v30.488h-60.977c-8.407 0-15.244-6.837-15.244-15.244s6.837-15.244 15.244-15.244zm130.639 38.11h-31.552v-38.11h32.26l5.85 8.777v9.661zm49.749-22.866h-20.324v-15.244zm-58.435 0h-11.433a3.808 3.808 0 0 1-3.81-3.81 3.808 3.808 0 0 1 3.81-3.812h11.433a3.808 3.808 0 0 1 3.811 3.811 3.808 3.808 0 0 1-3.81 3.811zm-72.41 3.811h-49.543a3.808 3.808 0 0 1-3.81-3.81 3.808 3.808 0 0 1 3.81-3.812h49.544a3.808 3.808 0 0 1 3.81 3.811 3.808 3.808 0 0 1-3.81 3.811zm72.41 11.433h-11.433a3.808 3.808 0 0 1-3.81-3.81 3.808 3.808 0 0 1 3.81-3.812h11.433a3.808 3.808 0 0 1 3.811 3.811 3.808 3.808 0 0 1-3.81 3.811z"/></g></g></svg>