<svg xmlns:mydata="http://www.w3.org/2000/svg" mydata:contrastcolor="ffffff" mydata:template="BlackAndHighlightColorHex1" mydata:presentation="2.5" mydata:layouttype="undefined" mydata:specialfontid="undefined" mydata:id1="133" mydata:id2="381" mydata:companyname="Amundsen Vedkompani" mydata:companytagline="" version="1.1" xmlns="http://www.w3.org/2000/svg" xmlns:xlink="http://www.w3.org/1999/xlink" viewBox="0 0 550 470"><g fill="#FFFFFF" fill-rule="none" stroke="none" stroke-width="1" stroke-linecap="butt" stroke-linejoin="miter" stroke-miterlimit="10" stroke-dasharray="" stroke-dashoffset="0" font-family="none" font-weight="none" font-size="none" text-anchor="none" style="mix-blend-mode: normal"><g data-paper-data="{&quot;isGlobalGroup&quot;:true,&quot;bounds&quot;:{&quot;x&quot;:88.60186342709872,&quot;y&quot;:118.29856176641161,&quot;width&quot;:372.7962731458025,&quot;height&quot;:233.4028764671768}}"><g data-paper-data="{&quot;stacked&quot;:true,&quot;isPrimaryText&quot;:true}" fill-rule="nonzero"><path d="M109.57871,294.42752h3.22721l-0.91438,-4.30294h-7.26122l-0.86059,4.30294h3.22721v8.82103h-18.39508v-8.82103h2.15147l9.08997,-33.02509h19.57839l9.08997,33.02509h2.15147v8.82103h-21.08442zM105.81364,284.42318h4.94839l-2.20526,-10.70357h-0.53787z" data-paper-data="{&quot;glyphName&quot;:&quot;A&quot;,&quot;glyphIndex&quot;:0,&quot;firstGlyphOfWord&quot;:true,&quot;word&quot;:1,&quot;line&quot;:1,&quot;firstGlyphOfFirstLine&quot;:true}"></path><path d="M132.27674,261.40243h25.71009l6.13169,18.44887l5.91655,-18.44887h24.79571v8.82103h-3.22721v24.20406h3.22721v8.82103h-21.51472v-8.82103h3.22721v-21.24578l-10.70357,30.06682h-5.80897l-12.15582,-30.17439v21.35336h3.22721v8.82103h-18.82538v-8.82103h3.22721v-24.20406h-3.22721z" data-paper-data="{&quot;glyphName&quot;:&quot;M&quot;,&quot;glyphIndex&quot;:1,&quot;word&quot;:1,&quot;line&quot;:1}"></path><path d="M235.00952,288.24204c0,2.90449 -0.4034,5.35179 -1.2102,7.3419c-0.8068,1.99011 -1.96322,3.61268 -3.46925,4.8677c-1.50603,1.25503 -3.32582,2.16044 -5.45936,2.71623c-2.13354,0.5558 -4.50913,0.8337 -7.12675,0.8337c-2.68934,0 -5.11871,-0.2779 -7.28811,-0.8337c-2.1694,-0.5558 -4.01608,-1.46121 -5.54004,-2.71623c-1.52396,-1.25503 -2.70727,-2.87759 -3.54993,-4.8677c-0.84266,-1.99011 -1.26399,-4.43741 -1.26399,-7.3419v-18.01858h-3.22721v-8.82103h20.43898v8.82103h-2.15147v20.7617c0,1.21917 0.25997,2.09768 0.77991,2.63555c0.51994,0.53787 1.29985,0.8068 2.33973,0.8068c1.03988,0 1.81979,-0.26893 2.33973,-0.8068c0.51994,-0.53787 0.77991,-1.41639 0.77991,-2.63555v-20.7617h-2.15147v-8.82103h18.98674v8.82103h-3.22721z" data-paper-data="{&quot;glyphName&quot;:&quot;U&quot;,&quot;glyphIndex&quot;:2,&quot;word&quot;:1,&quot;line&quot;:1}"></path><path d="M270.5088,261.40243h18.82538v8.82103h-3.22721v33.02509h-15.11409l-15.75953,-24.25784v15.43681h3.22721v8.82103h-18.82538v-8.82103h3.22721v-24.20406h-3.22721v-8.82103h19.9549l14.14593,21.62229v-12.80126h-3.22721z" data-paper-data="{&quot;glyphName&quot;:&quot;N&quot;,&quot;glyphIndex&quot;:3,&quot;word&quot;:1,&quot;line&quot;:1}"></path><path d="M291.16293,261.40243h22.37531c2.76106,0 5.33386,0.34961 7.71841,1.04884c2.38455,0.69923 4.45534,1.87357 6.21237,3.52304c1.75704,1.64946 3.13756,3.8099 4.14158,6.48131c1.00402,2.67141 1.50603,5.96137 1.50603,9.86988c0,3.94436 -0.50201,7.24329 -1.50603,9.89677c-1.00402,2.65348 -2.38455,4.80495 -4.14158,6.45442c-1.75704,1.64946 -3.82783,2.82381 -6.21237,3.52304c-2.38455,0.69923 -4.95735,1.04884 -7.71841,1.04884h-22.37531v-8.82103h3.22721v-24.15027h-3.22721zM312.57008,294.42752c1.21917,0 2.13354,-0.31376 2.74313,-0.94127c0.60958,-0.62751 0.91438,-1.6405 0.91438,-3.03895v-16.24361c0,-1.39846 -0.32272,-2.41144 -0.96816,-3.03895c-0.64544,-0.62751 -1.54189,-0.94127 -2.68934,-0.94127h-3.11963v24.20406z" data-paper-data="{&quot;glyphName&quot;:&quot;D&quot;,&quot;glyphIndex&quot;:4,&quot;word&quot;:1,&quot;line&quot;:1}"></path><path d="M350.92006,293.62072c1.18331,0 2.02597,-0.17929 2.52798,-0.53787c0.50201,-0.35858 0.75302,-0.89645 0.75302,-1.6136c0,-0.50201 -0.20618,-0.94127 -0.61855,-1.31778c-0.41237,-0.37651 -1.24606,-0.81577 -2.50109,-1.31778c-2.65348,-1.00402 -4.97528,-1.96322 -6.96539,-2.87759c-1.99011,-0.91438 -3.63957,-1.92736 -4.94839,-3.03895c-1.30881,-1.11159 -2.28594,-2.41144 -2.93138,-3.89954c-0.64544,-1.4881 -0.96816,-3.28996 -0.96816,-5.40557c0,-2.00804 0.31376,-3.8099 0.94127,-5.40557c0.62751,-1.59567 1.64946,-2.95827 3.06585,-4.0878c1.41639,-1.12952 3.29892,-1.99011 5.64761,-2.58177c2.34869,-0.59165 5.24421,-0.88748 8.68657,-0.88748c3.11963,0 6.05998,0.31376 8.82103,0.94127c2.76106,0.62751 5.05596,1.46121 6.88471,2.50109v9.62784h-11.29523c0,-1.03988 -0.28686,-1.74807 -0.86059,-2.12458c-0.57373,-0.37651 -1.27295,-0.56476 -2.09768,-0.56476c-1.18331,0 -2.03493,0.1524 -2.55487,0.45719c-0.51994,0.30479 -0.77991,0.8337 -0.77991,1.58671c0,0.60958 0.2779,1.05781 0.8337,1.34467c0.5558,0.28686 1.38949,0.60958 2.50109,0.96816c2.07976,0.6813 4.04297,1.39846 5.88965,2.15147c1.84668,0.75302 3.46925,1.68532 4.8677,2.79691c1.39846,1.11159 2.50109,2.45626 3.30789,4.03401c0.8068,1.57775 1.2102,3.51407 1.2102,5.80897c0,4.66152 -1.50603,8.13077 -4.51809,10.40774c-3.01206,2.27697 -7.42258,3.41546 -13.23155,3.41546c-3.29892,0 -6.47234,-0.28686 -9.52026,-0.86059c-3.04792,-0.57373 -5.48625,-1.25503 -7.315,-2.0439v-10.64979h11.83309c0,1.07574 0.21515,1.87357 0.64544,2.39351c0.43029,0.51994 1.32674,0.77991 2.68934,0.77991z" data-paper-data="{&quot;glyphName&quot;:&quot;S&quot;,&quot;glyphIndex&quot;:5,&quot;word&quot;:1,&quot;line&quot;:1}"></path><path d="M397.1767,270.22347h-6.5082v8.49831h4.73324v6.13169h-4.73324v9.57405h6.5082v-8.49831h12.04824v17.31935h-36.84395v-8.82103h3.22721v-24.20406h-3.22721v-8.82103h36.84395v16.24361h-12.04824z" data-paper-data="{&quot;glyphName&quot;:&quot;E&quot;,&quot;glyphIndex&quot;:6,&quot;word&quot;:1,&quot;line&quot;:1}"></path><path d="M442.57276,261.40243h18.82538v8.82103h-3.22721v33.02509h-15.11409l-15.75953,-24.25784v15.43681h3.22721v8.82103h-18.82538v-8.82103h3.22721v-24.20406h-3.22721v-8.82103h19.9549l14.14593,21.62229v-12.80126h-3.22721z" data-paper-data="{&quot;glyphName&quot;:&quot;N&quot;,&quot;glyphIndex&quot;:7,&quot;lastGlyphOfWord&quot;:true,&quot;word&quot;:1,&quot;line&quot;:1,&quot;lastGlyphOfFirstLine&quot;:true}"></path><path d="M106.61909,322.08149h-2.35828l3.25442,18.63038h0.47166l3.25442,-18.63038h-2.35828v-7.73515h15.65895v7.73515h-1.88662l-7.49932,28.95963h-17.16825l-7.49932,-28.95963h-1.88662v-7.73515h18.01723z" data-paper-data="{&quot;glyphName&quot;:&quot;V&quot;,&quot;glyphIndex&quot;:8,&quot;firstGlyphOfWord&quot;:true,&quot;word&quot;:2,&quot;line&quot;:2,&quot;firstGlyphOfSecondLine&quot;:true}"></path><path d="M147.5116,322.08149h-5.70703v7.45215h4.15057v5.37687h-4.15057v8.39546h5.70703v-7.45215h10.56508v15.1873h-32.30838v-7.73515h2.82993v-21.22448h-2.82993v-7.73515h32.30838v14.24399h-10.56508z" data-paper-data="{&quot;glyphName&quot;:&quot;E&quot;,&quot;glyphIndex&quot;:9,&quot;word&quot;:2,&quot;line&quot;:2}"></path><path d="M160.52928,314.34635h19.62086c2.42116,0 4.67725,0.30658 6.76825,0.91973c2.091,0.61315 3.90688,1.64293 5.44762,3.08934c1.54074,1.44641 2.75132,3.34089 3.63175,5.68345c0.88042,2.34255 1.32063,5.22751 1.32063,8.65487c0,3.4588 -0.44021,6.35162 -1.32063,8.67846c-0.88042,2.32683 -2.091,4.21345 -3.63175,5.65986c-1.54074,1.44641 -3.35661,2.47619 -5.44762,3.08934c-2.091,0.61315 -4.34709,0.91973 -6.76825,0.91973h-19.62086v-7.73515h2.82993v-21.17732h-2.82993zM179.30116,343.30598c1.06909,0 1.8709,-0.27513 2.40544,-0.8254c0.53454,-0.55026 0.80181,-1.43855 0.80181,-2.66485v-14.24399c0,-1.2263 -0.28299,-2.11459 -0.84898,-2.66485c-0.56599,-0.55026 -1.35208,-0.8254 -2.35828,-0.8254h-2.7356v21.22448z" data-paper-data="{&quot;glyphName&quot;:&quot;D&quot;,&quot;glyphIndex&quot;:10,&quot;word&quot;:2,&quot;line&quot;:2}"></path><path d="M233.87167,322.08149l-7.40499,9.52744l8.11247,11.69705h1.88662v7.73515h-14.05533l-7.45215,-12.92335v12.92335h-16.03628v-7.73515h2.82993v-21.22448h-2.82993v-7.73515h16.03628v12.68752l8.63129,-12.68752h12.1687v7.73515z" data-paper-data="{&quot;glyphName&quot;:&quot;K&quot;,&quot;glyphIndex&quot;:11,&quot;word&quot;:2,&quot;line&quot;:2}"></path><path d="M254.10567,343.30598c1.06909,0 1.8709,-0.27513 2.40544,-0.8254c0.53454,-0.55026 0.80181,-1.43855 0.80181,-2.66485v-14.24399c0,-1.2263 -0.26727,-2.11459 -0.80181,-2.66485c-0.53454,-0.55026 -1.33636,-0.8254 -2.40544,-0.8254c-1.06909,0 -1.8709,0.27513 -2.40544,0.8254c-0.53454,0.55026 -0.80181,1.43855 -0.80181,2.66485v14.24399c0,1.2263 0.26727,2.11459 0.80181,2.66485c0.53454,0.55026 1.33636,0.8254 2.40544,0.8254zM272.1229,332.69373c0,3.4588 -0.42449,6.39093 -1.27347,8.79637c-0.84898,2.40544 -2.0517,4.36281 -3.60816,5.87211c-1.55646,1.5093 -3.45094,2.60983 -5.68345,3.30159c-2.2325,0.69176 -4.71655,1.03764 -7.45215,1.03764c-2.7356,0 -5.21965,-0.34588 -7.45215,-1.03764c-2.2325,-0.69176 -4.12698,-1.79229 -5.68345,-3.30159c-1.55646,-1.5093 -2.75918,-3.46667 -3.60816,-5.87211c-0.84898,-2.40544 -1.27347,-5.33756 -1.27347,-8.79637c0,-3.42736 0.42449,-6.35162 1.27347,-8.77279c0.84898,-2.42116 2.0517,-4.38639 3.60816,-5.89569c1.55646,-1.5093 3.45094,-2.60983 5.68345,-3.30159c2.2325,-0.69176 4.71655,-1.03764 7.45215,-1.03764c2.7356,0 5.21965,0.34588 7.45215,1.03764c2.2325,0.69176 4.12698,1.79229 5.68345,3.30159c1.55646,1.5093 2.75918,3.47453 3.60816,5.89569c0.84898,2.42116 1.27347,5.34543 1.27347,8.77279z" data-paper-data="{&quot;glyphName&quot;:&quot;O&quot;,&quot;glyphIndex&quot;:12,&quot;word&quot;:2,&quot;line&quot;:2}"></path><path d="M273.44354,314.34635h22.54512l5.37687,16.17777l5.18821,-16.17777h21.7433v7.73515h-2.82993v21.22448h2.82993v7.73515h-18.86621v-7.73515h2.82993v-18.63038l-9.38594,26.36553h-5.09388l-10.65941,-26.45986v18.72471h2.82993v7.73515h-16.50793v-7.73515h2.82993v-21.22448h-2.82993z" data-paper-data="{&quot;glyphName&quot;:&quot;M&quot;,&quot;glyphIndex&quot;:13,&quot;word&quot;:2,&quot;line&quot;:2}"></path><path d="M348.01223,329.81664c0.88042,0 1.55646,-0.23583 2.02812,-0.70748c0.47166,-0.47166 0.70748,-1.24203 0.70748,-2.31111v-1.69796c0,-1.06909 -0.22797,-1.83946 -0.6839,-2.31111c-0.45593,-0.47166 -1.13983,-0.70748 -2.0517,-0.70748h-1.60363v7.73515zM350.93649,351.04112h-20.56417v-7.73515h2.82993v-21.22448h-2.82993v-7.73515h21.17732c1.91806,0 3.65533,0.19652 5.21179,0.58957c1.55646,0.39305 2.86924,1.02978 3.93832,1.9102c1.06909,0.88042 1.89448,2.02812 2.47619,3.44308c0.58171,1.41497 0.87256,3.12865 0.87256,5.14104c0,2.04384 -0.29085,3.76538 -0.87256,5.16462c-0.58171,1.39924 -1.4071,2.53908 -2.47619,3.4195c-1.06909,0.88042 -2.38186,1.51716 -3.93832,1.9102c-1.55646,0.39305 -3.29373,0.58957 -5.21179,0.58957h-5.14104v6.79183h4.52789z" data-paper-data="{&quot;glyphName&quot;:&quot;P&quot;,&quot;glyphIndex&quot;:14,&quot;word&quot;:2,&quot;line&quot;:2}"></path><path d="M377.7265,343.30598h2.82993l-0.80181,-3.77324h-6.36735l-0.75465,3.77324h2.82993v7.73515h-16.13061v-7.73515h1.88662l7.97097,-28.95963h17.16825l7.97097,28.95963h1.88662v7.73515h-18.48888zM374.42492,334.53319h4.33923l-1.93379,-9.38594h-0.47166z" data-paper-data="{&quot;glyphName&quot;:&quot;A&quot;,&quot;glyphIndex&quot;:15,&quot;word&quot;:2,&quot;line&quot;:2}"></path><path d="M424.60903,314.34635h16.50793v7.73515h-2.82993v28.95963h-13.25351l-13.8195,-21.27165v13.5365h2.82993v7.73515h-16.50793v-7.73515h2.82993v-21.22448h-2.82993v-7.73515h17.49841l12.40453,18.96054v-11.22539h-2.82993z" data-paper-data="{&quot;glyphName&quot;:&quot;N&quot;,&quot;glyphIndex&quot;:16,&quot;word&quot;:2,&quot;line&quot;:2}"></path><path d="M442.53193,314.34635h18.86621v7.73515h-2.82993v21.22448h2.82993v7.73515h-18.86621v-7.73515h2.82993v-21.22448h-2.82993z" data-paper-data="{&quot;glyphName&quot;:&quot;I&quot;,&quot;glyphIndex&quot;:17,&quot;lastGlyphOfWord&quot;:true,&quot;word&quot;:2,&quot;line&quot;:2,&quot;lastGlyphOfSecondLine&quot;:true}"></path></g><g data-paper-data="{&quot;isIcon&quot;:&quot;true&quot;,&quot;iconType&quot;:&quot;icon&quot;,&quot;rawIconId&quot;:&quot;577424&quot;,&quot;selectedEffects&quot;:{&quot;container&quot;:&quot;&quot;,&quot;transformation&quot;:&quot;&quot;,&quot;pattern&quot;:&quot;&quot;},&quot;fillRule&quot;:&quot;evenodd&quot;,&quot;bounds&quot;:{&quot;x&quot;:160.66896567740415,&quot;y&quot;:118.29856176641161,&quot;width&quot;:228.66206864519168,&quot;height&quot;:118.12872255727584},&quot;iconStyle&quot;:&quot;standalone&quot;,&quot;suitableAsStandaloneIcon&quot;:true}" fill-rule="evenodd"><path d="M328.95892,236.42728h-73.56973c-4.72644,-0.22752 -8.71012,-3.33923 -10.22425,-7.60873h-61.62977c-12.61071,0 -22.86621,-10.25549 -22.86621,-22.86621c0,-12.61071 10.25549,-22.86621 22.86621,-22.86621h60.97655v-3.81103c0,-13.83406 6.05574,-34.29931 19.05518,-34.29931v-11.4331c0,-8.40714 6.837,-15.24413 15.24413,-15.24413c8.40714,0 15.24413,6.837 15.24413,15.24413v11.4331h22.86621c10.71473,0 19.97668,6.35372 24.21569,15.49033c0.33042,0.125 0.64635,0.29726 0.93714,0.51601l41.18966,30.89605c3.7996,2.84684 6.06717,7.37816 6.06717,12.12672v13.34243c0,6.32251 -5.1487,11.47121 -11.47121,11.47121h-36.32335c-2.54806,4.38002 -7.20972,7.38541 -12.57756,7.60873zM286.43311,133.5427v11.4331h-15.24413v-11.4331c0,-4.20357 3.4185,-7.62207 7.62207,-7.62207c4.20357,0 7.62207,3.4185 7.62207,7.62207zM267.37794,167.84201c-2.1075,0 -3.81103,-1.70353 -3.81103,-3.81103v-11.4331c-6.15482,0 -11.4331,14.66867 -11.4331,26.67724v45.73241c0,2.10369 1.70734,3.81103 3.81103,3.81103h19.05518v-41.92138c0,-2.1075 1.70353,-3.81103 3.81103,-3.81103h15.24413v-3.81103h-3.81103c-2.1075,0 -3.81103,-1.70353 -3.81103,-3.81103c0,-2.1075 1.70353,-3.81103 3.81103,-3.81103h15.24413c2.1075,0 3.81103,1.70353 3.81103,3.81103c0,2.1075 -1.70353,3.81103 -3.81103,3.81103h-3.81103v3.81103h15.24413c1.27288,0 2.46192,0.63645 3.17078,1.69591l7.62207,11.4331c0.4154,0.62501 0.64025,1.36435 0.64025,2.11512v11.4331c0,0.40778 -0.0686,0.81556 -0.19817,1.20428l-5.95016,17.85088h6.11023c4.22644,0 7.66018,-3.43374 7.66018,-7.66018v-49.50534c0,-10.50702 -8.54815,-19.05518 -19.05518,-19.05518h-45.73241v11.4331c0,2.1075 -1.70353,3.81103 -3.81103,3.81103zM377.85984,221.19649h-34.2612v-7.62207h26.67724c2.1075,0 3.81103,-1.70353 3.81103,-3.81103v-3.81103c0,-1.19667 -0.56403,-2.32855 -1.52441,-3.04883l-28.96386,-21.7229v-9.52758l35.09582,26.319c1.88646,1.4177 3.01453,3.67383 3.01453,6.03287v13.34243c0,2.12275 -1.7264,3.84915 -3.84915,3.84915zM183.53518,190.70821h60.97655v30.48828h-60.97655c-8.40714,0 -15.24413,-6.837 -15.24413,-15.24413c0,-8.40714 6.837,-15.24413 15.24413,-15.24413zM314.17363,228.81855h-31.55156v-38.11034h32.26041l5.84994,8.77682v9.66097zM363.92288,205.95235h-20.32425v-15.24413zM305.48829,205.95235h-11.4331c-2.1075,0 -3.81103,-1.70353 -3.81103,-3.81103c0,-2.1075 1.70353,-3.81103 3.81103,-3.81103h11.4331c2.1075,0 3.81103,1.70353 3.81103,3.81103c0,2.1075 -1.70353,3.81103 -3.81103,3.81103zM233.07863,209.76339h-49.54344c-2.1075,0 -3.81103,-1.70353 -3.81103,-3.81103c0,-2.1075 1.70353,-3.81103 3.81103,-3.81103h49.54344c2.1075,0 3.81103,1.70353 3.81103,3.81103c0,2.1075 -1.70353,3.81103 -3.81103,3.81103zM305.48829,221.19649h-11.4331c-2.1075,0 -3.81103,-1.70353 -3.81103,-3.81103c0,-2.1075 1.70353,-3.81103 3.81103,-3.81103h11.4331c2.1075,0 3.81103,1.70353 3.81103,3.81103c0,2.1075 -1.70353,3.81103 -3.81103,3.81103z" data-paper-data="{&quot;isPathIcon&quot;:true}"></path></g></g></g></svg>